<svg width="16" height="16" viewBox="0 0 16 16" fill="none" xmlns="http://www.w3.org/2000/svg">
<g clip-path="url(#clip0_1008_27164)">
<rect x="4" y="0.0012207" width="7" height="16" fill="#53A93F" fill-opacity="0.2"/>
<path opacity="0.25" d="M4.5 3.50122V0.501221H15.5V3.50122H4.5Z" stroke="#53A93F"/>
<path opacity="0.5" d="M4.5 7.50122V4.50122H15.5V7.50122H4.5Z" stroke="#53A93F"/>
<path opacity="0.75" d="M4.5 11.5012V8.50122H15.5V11.5012H4.5Z" stroke="#53A93F"/>
<path opacity="0.9" d="M4.5 15.5012V12.5012H15.5V15.5012H4.5Z" stroke="#53A93F"/>
<path opacity="0.25" fill-rule="evenodd" clip-rule="evenodd" d="M1.05263 4.44859L9.16859 4.00122C9.63049 4.00122 10 4.37843 10 4.83263L9.55263 12.9486L8.5 14.0012H0.831409C0.369515 14.0012 0 13.624 0 13.1698V5.50122L1.05263 4.44859Z" fill="#000001"/>
<path fill-rule="evenodd" clip-rule="evenodd" d="M1.74827 4.00122H9.25173C9.66744 4.00122 10 4.34071 10 4.74949V12.253C10 12.6687 9.66051 13.0012 9.25173 13.0012H1.74827C1.33256 13.0012 1 12.6617 1 12.253V4.74949C1 4.33378 1.33949 4.00122 1.74827 4.00122Z" fill="#53A93F"/>
<path d="M3.26733 11.0031L4.88188 8.49406L3.40552 5.99951H4.59824L5.40552 7.59224C5.47824 7.74497 5.52915 7.85406 5.55824 7.93406H5.56552C5.61643 7.81042 5.67461 7.69406 5.73279 7.58497L6.59824 6.00678H7.69642L6.17642 8.48678L7.73279 11.0104H6.56915L5.63824 9.25769C5.59461 9.18497 5.55824 9.10497 5.52915 9.02497H5.51461C5.48552 9.10497 5.44915 9.17769 5.40552 9.25042L4.44552 11.0104L3.26733 11.0031Z" fill="white"/>
</g>
<defs>
<clipPath id="clip0_1008_27164">
<rect width="16" height="16" fill="white" transform="translate(0 0.0012207)"/>
</clipPath>
</defs>
</svg>
