<svg width="16" height="16" viewBox="0 0 16 16" fill="none" xmlns="http://www.w3.org/2000/svg">
<mask id="mask0_237_1276" style="mask-type:alpha" maskUnits="userSpaceOnUse" x="0" y="4" width="16" height="12">
<path fill-rule="evenodd" clip-rule="evenodd" d="M16 4H0V16H4C2.89543 16 2 15.1046 2 14V10C2 8.89543 2.89543 8 4 8H12C13.1046 8 14 8.89543 14 10V14C14 15.1046 13.1046 16 12 16H16V4Z" fill="#D9D9D9"/>
</mask>
<g mask="url(#mask0_237_1276)">
<rect x="1" y="5" width="14" height="8" rx="1" fill="white" fill-opacity="0.5"/>
</g>
<rect x="12" y="15" width="8" height="5" rx="1" transform="rotate(-180 12 15)" fill="white" fill-opacity="0.5"/>
<rect x="5" y="11" width="6" height="1" fill="#83BEEC"/>
<rect x="5" y="13" width="6" height="1" fill="#83BEEC"/>
<path d="M3.5 12V11.5C3.5 10.3954 4.39543 9.5 5.5 9.5H10.5C11.6046 9.5 12.5 10.3954 12.5 11.5V13.5C12.5 14.6046 11.6046 15.5 10.5 15.5H5.5C4.39543 15.5 3.5 14.6046 3.5 13.5V13.5H2.5C1.39543 13.5 0.5 12.6046 0.5 11.5V6.5C0.5 5.39543 1.39543 4.5 2.5 4.5H13.5C14.6046 4.5 15.5 5.39543 15.5 6.5V12C15.5 12.8284 14.8284 13.5 14 13.5V13.5" stroke="#777777"/>
<path d="M3 3C3 1.89543 3.89543 1 5 1H11C12.1046 1 13 1.89543 13 3H3Z" fill="white" fill-opacity="0.5"/>
<path d="M3.5 3V3C3.5 2.17157 4.17157 1.5 5 1.5H11C11.8284 1.5 12.5 2.17157 12.5 3V3" stroke="#777777"/>
<rect x="13" y="6" width="1" height="1" fill="#53A93F"/>
</svg>
