<svg width="16" height="16" viewBox="0 0 16 16" fill="none" xmlns="http://www.w3.org/2000/svg">
<g clip-path="url(#clip0_415_9702)">
<g clip-path="url(#clip1_415_9702)">
<path d="M4 15.5015C3.17157 15.5015 2.5 14.8299 2.5 14.0015V2.00146C2.5 1.17304 3.17157 0.501465 4 0.501465H9.18864C9.58776 0.501465 9.97043 0.660534 10.252 0.943466L13.0633 3.76896C13.343 4.05004 13.5 4.43043 13.5 4.82696V14.0015C13.5 14.8299 12.8284 15.5015 12 15.5015H4Z" fill="white" fill-opacity="0.5" stroke="#777777"/>
<path d="M12 4.50146H10.5C9.94772 4.50146 9.5 4.05375 9.5 3.50146V2.00146" stroke="#83BEEC" stroke-linejoin="round"/>
</g>
<rect y="7.00146" width="12" height="6" rx="1" fill="#777777"/>
<path d="M1.83674 8.3651L2.57005 9.60445H2.59846L3.33532 8.3651H4.20357L3.09384 10.1833L4.22843 12.0015H3.34419L2.59846 10.7603H2.57005L1.82431 12.0015H0.943626L2.08176 10.1833L0.964933 8.3651H1.83674ZM4.44007 8.3651H5.38823L6.38965 10.8083H6.43226L7.43368 8.3651H8.38184V12.0015H7.6361V9.63463H7.60591L6.66486 11.9837H6.15705L5.216 9.62575H5.18581V12.0015H4.44007V8.3651ZM8.76527 12.0015V8.3651H9.53409V11.3676H11.093V12.0015H8.76527Z" fill="white"/>
</g>
<defs>
<clipPath id="clip0_415_9702">
<rect width="16" height="16" fill="white" transform="translate(0 0.00146484)"/>
</clipPath>
<clipPath id="clip1_415_9702">
<rect width="16" height="16" fill="white" transform="translate(0 0.00146484)"/>
</clipPath>
</defs>
</svg>
